<?xml version="1.0" encoding="UTF-8" standalone="no"?>
<!-- Created with Inkscape (http://www.inkscape.org/) -->

<svg
   xmlns:dc="http://purl.org/dc/elements/1.1/"
   xmlns:cc="http://creativecommons.org/ns#"
   xmlns:rdf="http://www.w3.org/1999/02/22-rdf-syntax-ns#"
   xmlns:svg="http://www.w3.org/2000/svg"
   xmlns="http://www.w3.org/2000/svg"
   xmlns:sodipodi="http://sodipodi.sourceforge.net/DTD/sodipodi-0.dtd"
   xmlns:inkscape="http://www.inkscape.org/namespaces/inkscape"
   width="210mm"
   height="297mm"
   viewBox="0 0 210 297"
   version="1.1"
   id="svg8"
   inkscape:version="0.92.0 r15299"
   sodipodi:docname="drawing.svg"
   inkscape:export-filename="C:\Users\Marcin\Desktop\icon-96.png"
   inkscape:export-xdpi="52.895084"
   inkscape:export-ydpi="52.895084">
  <defs
     id="defs2" />
  <sodipodi:namedview
     id="base"
     pagecolor="#ffffff"
     bordercolor="#666666"
     borderopacity="1.0"
     inkscape:pageopacity="0.0"
     inkscape:pageshadow="2"
     inkscape:zoom="2.734375"
     inkscape:cx="380.08173"
     inkscape:cy="754.04551"
     inkscape:document-units="mm"
     inkscape:current-layer="layer1"
     showgrid="false"
     inkscape:window-width="1823"
     inkscape:window-height="1057"
     inkscape:window-x="-8"
     inkscape:window-y="-8"
     inkscape:window-maximized="1" />
  <metadata
     id="metadata5">
    <rdf:RDF>
      <cc:Work
         rdf:about="">
        <dc:format>image/svg+xml</dc:format>
        <dc:type
           rdf:resource="http://purl.org/dc/dcmitype/StillImage" />
        <dc:title></dc:title>
      </cc:Work>
    </rdf:RDF>
  </metadata>
  <g
     inkscape:label="Layer 1"
     inkscape:groupmode="layer"
     id="layer1">
    <g
       style="fill:#ff3447;fill-opacity:1"
       id="g3886"
       transform="matrix(0.79375,0,0,0.79375,67.291479,68.085902)"
       inkscape:export-xdpi="27.089941"
       inkscape:export-ydpi="27.089941">
      <g
         id="g3866"
         style="fill:#ff3447;fill-opacity:1">
        <path
           id="path3848"
           d="m 50.1,24.2 c -0.1,0 -0.2,0 -0.3,0 l -26.2,13 c -0.1,0 -0.2,0.2 -0.2,0.3 l -0.1,25.1 c 0,0.1 0.1,0.2 0.2,0.3 l 26.1,13 c 0,0 0.1,0 0.3,0 0.1,0 0.2,0 0.3,0 l 26.3,-13 c 0.1,0 0.2,-0.2 0.2,-0.3 L 76.6,37.5 c 0,-0.1 -0.1,-0.2 -0.2,-0.3 l -26.1,-13 c 0,0 -0.1,0 -0.2,0 m -0.2,53.3 c -0.3,0 -0.7,0 -1,-0.2 L 22.8,64.3 C 22.1,64 21.7,63.2 21.7,62.5 l 0.1,-25.1 c 0,-0.7 0.5,-1.5 1.1,-1.8 l 26.2,-13 c 0.4,-0.2 0.8,-0.2 1,-0.2 0.3,0 0.7,0 1,0.2 l 26.1,13 c 0.7,0.3 1.1,1.1 1.1,1.8 l 0.1,25.1 c 0,0.7 -0.5,1.5 -1.1,1.8 L 51,77.3 c -0.4,0.2 -0.8,0.2 -1.1,0.2"
           inkscape:connector-curvature="0"
           style="fill:#ff3447;fill-opacity:1" />
        <polygon
           id="polygon3850"
           points="49.1,50.9 22.2,37.5 23,36 50.9,49.8 50.8,76.9 49,76.9 "
           style="fill:#ff3447;fill-opacity:1" />
        <rect
           id="rect3852"
           height="30.6"
           width="1.5"
           transform="matrix(0.4445,0.8958,-0.8958,0.4445,74.396,-32.8906)"
           y="28.200001"
           x="63"
           style="fill:#ff3447;fill-opacity:1" />
        <path
           id="path3858"
           d="m 38,38.1 c -2.5,0 -4.5,-1.3 -4.5,-2.9 0,-1.6 2,-2.9 4.5,-2.9 2.5,0 4.5,1.3 4.5,2.9 0,1.6 -2,2.9 -4.5,2.9 m 5.2,-2.8 c 0,0 0,-0.1 0,-0.1 0,-2 -2.3,-3.6 -5.2,-3.6 -2.9,0 -5.2,1.6 -5.2,3.6 0,0 0,0.1 0,0.1 0,0 0,0.1 0,0.1 0,0 0,0.1 0,0.1 0,0 0,0.1 0,0.1 0,0 0,0.1 0,0.1 0,0 0,0.1 0,0.1 0,0 0,0.1 0,0.1 0,0 0,0.1 0,0.1 0,0 0,0.1 0,0.1 0,0 0,0.1 0,0.1 0,0 0,0.1 0,0.1 0,0 0,0.1 0,0.1 0,0 0,0.1 0,0.1 0,0 0,0.1 0,0.1 0,0 0,0.1 0,0.1 0,0 0,0.1 0,0.1 0,0 0,0.1 0,0.1 0,0 0,0.1 0,0.1 0,0 0,0.1 0,0.1 0,0 0,0.1 0,0.1 0,2 2.3,3.6 5.2,3.6 2.9,0 5.2,-1.6 5.2,-3.6 0,0 0,-0.1 0,-0.1 0,0 0,-0.1 0,-0.1 0,0 0,-0.1 0,-0.1 0,0 0,-0.1 0,-0.1 0,0 0,-0.1 0,-0.1 0,0 0,-0.1 0,-0.1 0,0 0,-0.1 0,-0.1 0,0 0,-0.1 0,-0.1 0,0 0,-0.1 0,-0.1 0,0 0,-0.1 0,-0.1 0,0 0,-0.1 0,-0.1 0,0 0,-0.1 0,-0.1 0,0 0,-0.1 0,-0.1 0,0 0,-0.1 0,-0.1 0,0 0,-0.1 0,-0.1 0,0 0,-0.1 0,-0.1 0,0 0,-0.1 0,-0.1 0,0 0,-0.1 0,-0.1 0,0 0,-0.1 0,-0.1"
           inkscape:connector-curvature="0"
           style="fill:#ff3447;fill-opacity:1" />
        <path
           id="path3860"
           d="m 50,43.6 c -2.5,0 -4.5,-1.3 -4.5,-2.9 0,-1.6 2,-2.9 4.5,-2.9 2.5,0 4.5,1.3 4.5,2.9 0,1.6 -2,2.9 -4.5,2.9 m 5.2,-2.8 c 0,0 0,-0.1 0,-0.1 0,-2 -2.3,-3.6 -5.2,-3.6 -2.9,0 -5.2,1.6 -5.2,3.6 0,0 0,0.1 0,0.1 0,0 0,0.1 0,0.1 0,0 0,0.1 0,0.1 0,0 0,0.1 0,0.1 0,0 0,0.1 0,0.1 0,0 0,0.1 0,0.1 0,0 0,0.1 0,0.1 0,0 0,0.1 0,0.1 0,0 0,0.1 0,0.1 0,0 0,0.1 0,0.1 0,0 0,0.1 0,0.1 0,0 0,0.1 0,0.1 0,0 0,0.1 0,0.1 0,0 0,0.1 0,0.1 0,0 0,0.1 0,0.1 0,0 0,0.1 0,0.1 0,0 0,0.1 0,0.1 0,0 0,0.1 0,0.1 0,0 0,0.1 0,0.1 0,0 0,0.1 0,0.1 0,2 2.3,3.6 5.2,3.6 2.9,0 5.2,-1.6 5.2,-3.6 0,0 0,-0.1 0,-0.1 0,0 0,-0.1 0,-0.1 0,0 0,-0.1 0,-0.1 0,0 0,-0.1 0,-0.1 0,0 0,-0.1 0,-0.1 0,0 0,-0.1 0,-0.1 0,0 0,-0.1 0,-0.1 0,0 0,-0.1 0,-0.1 0,0 0,-0.1 0,-0.1 0,0 0,-0.1 0,-0.1 0,0 0,-0.1 0,-0.1 0,0 0,-0.1 0,-0.1 0,0 0,-0.1 0,-0.1 0,0 0,-0.1 0,-0.1 0,0 0,-0.1 0,-0.1 0,0 0,-0.1 0,-0.1 0,0 0,-0.1 0,-0.1 0,0 0,-0.1 0,-0.1 0,0 0,-0.1 0,-0.1"
           inkscape:connector-curvature="0"
           style="fill:#ff3447;fill-opacity:1" />
        <path
           id="path3862"
           d="m 62.2,38.4 c -2.5,0 -4.5,-1.3 -4.5,-2.9 0,-1.6 2,-2.9 4.5,-2.9 2.5,0 4.5,1.3 4.5,2.9 -0.1,1.6 -2.1,2.9 -4.5,2.9 m 5.1,-2.8 c 0,0 0,-0.1 0,-0.1 0,-2 -2.3,-3.6 -5.2,-3.6 -2.9,0 -5.2,1.6 -5.2,3.6 0,0 0,0.1 0,0.1 0,0 0,0.1 0,0.1 0,0 0,0.1 0,0.1 0,0 0,0.1 0,0.1 0,0 0,0.1 0,0.1 0,0 0,0.1 0,0.1 0,0 0,0.1 0,0.1 0,0 0,0.1 0,0.1 0,0 0,0.1 0,0.1 0,0 0,0.1 0,0.1 0,0 0,0.1 0,0.1 0,0 0,0.1 0,0.1 0,0 0,0.1 0,0.1 0,0 0,0.1 0,0.1 0,0 0,0.1 0,0.1 0,0 0,0.1 0,0.1 0,0 0,0.1 0,0.1 0,0 0,0.1 0,0.1 0,0 0,0.1 0,0.1 0,0 0,0.1 0,0.1 0,2 2.3,3.6 5.2,3.6 2.9,0 5.2,-1.6 5.2,-3.6 0,0 0,-0.1 0,-0.1 0,0 0,-0.1 0,-0.1 0,0 0,-0.1 0,-0.1 0,0 0,-0.1 0,-0.1 0,0 0,-0.1 0,-0.1 0,0 0,-0.1 0,-0.1 0,0 0,-0.1 0,-0.1 0,0 0,-0.1 0,-0.1 0,0 0,-0.1 0,-0.1 0,0 0,-0.1 0,-0.1 0,0 0,-0.1 0,-0.1 0,0 0,-0.1 0,-0.1 0,0 0,-0.1 0,-0.1 0,0 0,-0.1 0,-0.1 0,0 0,-0.1 0,-0.1 0,0 0,-0.1 0,-0.1 0,0 0,-0.1 0,-0.1 0,0 0,-0.1 0,-0.1 0,0 0,-0.1 0,-0.1"
           inkscape:connector-curvature="0"
           style="fill:#ff3447;fill-opacity:1" />
        <path
           id="path3864"
           d="m 50,32.5 c -2.5,0 -4.5,-1.3 -4.5,-2.9 0,-1.6 2,-2.9 4.5,-2.9 2.5,0 4.5,1.3 4.5,2.9 0,1.5 -2,2.9 -4.5,2.9 m 5.2,-2.9 c 0,0 0,-0.1 0,-0.1 0,-2 -2.3,-3.6 -5.2,-3.6 -2.9,0 -5.2,1.6 -5.2,3.6 0,0 0,0.1 0,0.1 0,0 0,0.1 0,0.1 0,0 0,0.1 0,0.1 0,0 0,0.1 0,0.1 0,0 0,0.1 0,0.1 0,0 0,0.1 0,0.1 0,0 0,0.1 0,0.1 0,0 0,0.1 0,0.1 0,0 0,0.1 0,0.1 0,0 0,0.1 0,0.1 0,0 0,0.1 0,0.1 0,0 0,0.1 0,0.1 0,0 0,0.1 0,0.1 0,0 0,0.1 0,0.1 0,0 0,0.1 0,0.1 0,0 0,0.1 0,0.1 0,0 0,0.1 0,0.1 0,0 0,0.1 0,0.1 0,0 0,0.1 0,0.1 0,0 0,0.1 0,0.1 0,2 2.3,3.6 5.2,3.6 2.9,0 5.2,-1.6 5.2,-3.6 0,0 0,-0.1 0,-0.1 0,0 0,-0.1 0,-0.1 0,0 0,-0.1 0,-0.1 0,0 0,-0.1 0,-0.1 0,0 0,-0.1 0,-0.1 0,0 0,-0.1 0,-0.1 0,0 0,-0.1 0,-0.1 0,0 0,-0.1 0,-0.1 0,0 0,-0.1 0,-0.1 0,0 0,-0.1 0,-0.1 0,0 0,-0.1 0,-0.1 0,0 0,-0.1 0,-0.1 0,0 0,-0.1 0,-0.1 0,0 0,-0.1 0,-0.1 0,0 0,-0.1 0,-0.1 0,0 0,-0.1 0,-0.1 0,0 0,-0.1 0,-0.1 0,0 0,-0.1 0,-0.1 0,0 0,0 0,-0.1"
           inkscape:connector-curvature="0"
           style="fill:#ff3447;fill-opacity:1" />
      </g>
    </g>
    <text
       xml:space="preserve"
       style="font-style:normal;font-weight:normal;font-size:30.89312744px;line-height:19.30820274px;font-family:sans-serif;letter-spacing:0px;word-spacing:0px;fill:#13a000;fill-opacity:1;stroke:#226932;stroke-width:0.27200001;stroke-miterlimit:4;stroke-dasharray:none;stroke-opacity:1"
       x="112.9806"
       y="123.5061"
       id="text3890"
       inkscape:export-xdpi="27.089941"
       inkscape:export-ydpi="27.089941"><tspan
         sodipodi:role="line"
         id="tspan3888"
         x="112.9806"
         y="123.5061"
         style="fill:#13a000;fill-opacity:1;stroke:#226932;stroke-width:0.27200001;stroke-miterlimit:4;stroke-dasharray:none;stroke-opacity:1">$</tspan></text>
  </g>
</svg>
